<svg width="40" height="40" viewBox="0 0 40 40" fill="none" xmlns="http://www.w3.org/2000/svg">
<g id="Logo 11">
<path id="Vector" d="M0.284058 3.06317C0.284058 1.52925 1.56823 0.28418 3.15124 0.28418H36.2118C37.7954 0.28418 39.0789 1.52925 39.0789 3.06317V36.3005C39.0789 37.8349 37.7954 39.0791 36.2118 39.0791H3.15124C1.56838 39.0791 0.284058 37.8351 0.284058 36.301V3.06271V3.06317Z" fill="#006699"/>
<path id="Vector_2" d="M12.0731 32.7507V15.2851H6.26784V32.7507H12.0737H12.0731ZM9.1717 12.9009C11.1957 12.9009 12.4558 11.5598 12.4558 9.88369C12.4179 8.16944 11.1957 6.86572 9.21019 6.86572C7.22332 6.86572 5.92566 8.16944 5.92566 9.88354C5.92566 11.5596 7.18528 12.9008 9.13366 12.9008H9.17125L9.1717 12.9009ZM15.2864 32.7507H21.0913V22.9982C21.0913 22.4769 21.1292 21.9542 21.2825 21.5819C21.702 20.5385 22.6572 19.4585 24.2612 19.4585C26.3613 19.4585 27.2019 21.06 27.2019 23.4081V32.7507H33.0066V22.7365C33.0066 17.372 30.1431 14.8757 26.3237 14.8757C23.1924 14.8757 21.8172 16.6258 21.0531 17.8179H21.0917V15.2857H15.2867C15.3625 16.9242 15.2863 32.7513 15.2863 32.7513L15.2864 32.7507Z" fill="white"/>
</g>
</svg>
