<svg width="42" height="42" viewBox="0 0 42 42" fill="none" xmlns="http://www.w3.org/2000/svg">
<g id="Logo 2">
<path id="Vector" d="M14.0813 21C14.0813 17.18 17.1791 14.0825 21.0014 14.0825C24.8237 14.0825 27.9231 17.18 27.9231 21C27.9231 24.82 24.8237 27.9176 21.0014 27.9176C17.1791 27.9176 14.0813 24.82 14.0813 21ZM10.3396 21C10.3396 26.885 15.1129 31.6554 21.0014 31.6554C26.8899 31.6554 31.6632 26.885 31.6632 21C31.6632 15.115 26.8899 10.3446 21.0014 10.3446C15.1129 10.3446 10.3396 15.115 10.3396 21ZM29.5936 9.92215C29.5934 10.4146 29.7394 10.8961 30.013 11.3058C30.2866 11.7154 30.6756 12.0347 31.1308 12.2233C31.586 12.412 32.087 12.4615 32.5704 12.3656C33.0537 12.2697 33.4978 12.0327 33.8464 11.6846C34.195 11.3365 34.4325 10.8929 34.5288 10.4099C34.6251 9.92692 34.576 9.42622 34.3876 8.97114C34.1992 8.51605 33.88 8.12702 33.4703 7.85324C33.0607 7.57946 32.579 7.43322 32.0862 7.43302H32.0852C31.4247 7.43333 30.7913 7.69564 30.3241 8.16235C29.8569 8.62906 29.5942 9.26199 29.5936 9.92215ZM12.6129 37.8909C10.5886 37.7987 9.48829 37.4617 8.75708 37.177C7.78768 36.7999 7.096 36.3506 6.36878 35.6248C5.64156 34.8991 5.19141 34.2085 4.81568 33.2396C4.53064 32.5092 4.19344 31.4092 4.10141 29.3861C4.00075 27.1988 3.98065 26.5417 3.98065 21.0002C3.98065 15.4587 4.00241 14.8034 4.10141 12.6143C4.1936 10.5912 4.53329 9.49335 4.81568 8.76076C5.19307 7.79193 5.64256 7.10068 6.36878 6.37389C7.09501 5.64711 7.78601 5.19723 8.75708 4.82172C9.48795 4.53685 10.5886 4.19985 12.6129 4.10788C14.8016 4.00728 15.459 3.98719 21.0014 3.98719C26.5437 3.98719 27.2018 4.00894 29.3923 4.10788C31.4167 4.20002 32.5151 4.5395 33.2482 4.82172C34.2176 5.19723 34.9092 5.6481 35.6365 6.37389C36.3637 7.09968 36.8122 7.79193 37.1896 8.76076C37.4746 9.49119 37.8118 10.5912 37.9038 12.6143C38.0045 14.8034 38.0246 15.4587 38.0246 21.0002C38.0246 26.5417 38.0045 27.1969 37.9038 29.3861C37.8116 31.4092 37.4728 32.5089 37.1896 33.2396C36.8122 34.2085 36.3627 34.8997 35.6365 35.6248C34.9102 36.35 34.2176 36.7999 33.2482 37.177C32.5173 37.4619 31.4167 37.7989 29.3923 37.8909C27.2037 37.9915 26.5462 38.0115 21.0014 38.0115C15.4565 38.0115 14.8009 37.9915 12.6129 37.8909ZM12.441 0.374692C10.2306 0.475292 8.7202 0.825569 7.40114 1.33853C6.03507 1.86827 4.87863 2.57895 3.72302 3.73204C2.56741 4.88513 1.85813 6.04271 1.32808 7.40796C0.814807 8.72706 0.46432 10.2357 0.363659 12.4448C0.261336 14.6574 0.237915 15.3647 0.237915 21C0.237915 26.6353 0.261336 27.3427 0.363659 29.5553C0.46432 31.7645 0.814807 33.273 1.32808 34.5921C1.85813 35.9565 2.56758 37.1154 3.72302 38.268C4.87847 39.4206 6.03507 40.1303 7.40114 40.6615C8.7227 41.1745 10.2306 41.5248 12.441 41.6254C14.6561 41.726 15.3627 41.751 21.0014 41.751C26.6401 41.751 27.3479 41.7276 29.5617 41.6254C31.7723 41.5248 33.2817 41.1745 34.6016 40.6615C35.9669 40.1303 37.1241 39.4211 38.2797 38.268C39.4353 37.1149 40.1431 35.9565 40.6747 34.5921C41.188 33.273 41.5401 31.7643 41.6391 29.5553C41.7398 27.341 41.7632 26.6353 41.7632 21C41.7632 15.3647 41.7398 14.6574 41.6391 12.4448C41.5384 10.2356 41.188 8.72623 40.6747 7.40796C40.1431 6.04354 39.4335 4.88696 38.2797 3.73204C37.1259 2.57712 35.9669 1.86827 34.6033 1.33853C33.2817 0.825569 31.7721 0.473632 29.5634 0.374692C27.3495 0.274091 26.6417 0.249023 21.003 0.249023C15.3643 0.249023 14.6561 0.272431 12.441 0.374692Z" fill="url(#paint0_radial_6029_3)"/>
<path id="Vector_2" d="M14.0813 21C14.0813 17.18 17.1791 14.0825 21.0014 14.0825C24.8237 14.0825 27.9231 17.18 27.9231 21C27.9231 24.82 24.8237 27.9176 21.0014 27.9176C17.1791 27.9176 14.0813 24.82 14.0813 21ZM10.3396 21C10.3396 26.885 15.1129 31.6554 21.0014 31.6554C26.8899 31.6554 31.6632 26.885 31.6632 21C31.6632 15.115 26.8899 10.3446 21.0014 10.3446C15.1129 10.3446 10.3396 15.115 10.3396 21ZM29.5936 9.92215C29.5934 10.4146 29.7394 10.8961 30.013 11.3058C30.2866 11.7154 30.6756 12.0347 31.1308 12.2233C31.586 12.412 32.087 12.4615 32.5704 12.3656C33.0537 12.2697 33.4978 12.0327 33.8464 11.6846C34.195 11.3365 34.4325 10.8929 34.5288 10.4099C34.6251 9.92692 34.576 9.42622 34.3876 8.97114C34.1992 8.51605 33.88 8.12702 33.4703 7.85324C33.0607 7.57946 32.579 7.43322 32.0862 7.43302H32.0852C31.4247 7.43333 30.7913 7.69564 30.3241 8.16235C29.8569 8.62906 29.5942 9.26199 29.5936 9.92215ZM12.6129 37.8909C10.5886 37.7987 9.48829 37.4617 8.75708 37.177C7.78768 36.7999 7.096 36.3506 6.36878 35.6248C5.64156 34.8991 5.19141 34.2085 4.81568 33.2396C4.53064 32.5092 4.19344 31.4092 4.10141 29.3861C4.00075 27.1988 3.98065 26.5417 3.98065 21.0002C3.98065 15.4587 4.00241 14.8034 4.10141 12.6143C4.1936 10.5912 4.53329 9.49335 4.81568 8.76076C5.19307 7.79193 5.64256 7.10068 6.36878 6.37389C7.09501 5.64711 7.78601 5.19723 8.75708 4.82172C9.48795 4.53685 10.5886 4.19985 12.6129 4.10788C14.8016 4.00728 15.459 3.98719 21.0014 3.98719C26.5437 3.98719 27.2018 4.00894 29.3923 4.10788C31.4167 4.20002 32.5151 4.5395 33.2482 4.82172C34.2176 5.19723 34.9092 5.6481 35.6365 6.37389C36.3637 7.09968 36.8122 7.79193 37.1896 8.76076C37.4746 9.49119 37.8118 10.5912 37.9038 12.6143C38.0045 14.8034 38.0246 15.4587 38.0246 21.0002C38.0246 26.5417 38.0045 27.1969 37.9038 29.3861C37.8116 31.4092 37.4728 32.5089 37.1896 33.2396C36.8122 34.2085 36.3627 34.8997 35.6365 35.6248C34.9102 36.35 34.2176 36.7999 33.2482 37.177C32.5173 37.4619 31.4167 37.7989 29.3923 37.8909C27.2037 37.9915 26.5462 38.0115 21.0014 38.0115C15.4565 38.0115 14.8009 37.9915 12.6129 37.8909ZM12.441 0.374692C10.2306 0.475292 8.7202 0.825569 7.40114 1.33853C6.03507 1.86827 4.87863 2.57895 3.72302 3.73204C2.56741 4.88513 1.85813 6.04271 1.32808 7.40796C0.814807 8.72706 0.46432 10.2357 0.363659 12.4448C0.261336 14.6574 0.237915 15.3647 0.237915 21C0.237915 26.6353 0.261336 27.3427 0.363659 29.5553C0.46432 31.7645 0.814807 33.273 1.32808 34.5921C1.85813 35.9565 2.56758 37.1154 3.72302 38.268C4.87847 39.4206 6.03507 40.1303 7.40114 40.6615C8.7227 41.1745 10.2306 41.5248 12.441 41.6254C14.6561 41.726 15.3627 41.751 21.0014 41.751C26.6401 41.751 27.3479 41.7276 29.5617 41.6254C31.7723 41.5248 33.2817 41.1745 34.6016 40.6615C35.9669 40.1303 37.1241 39.4211 38.2797 38.268C39.4353 37.1149 40.1431 35.9565 40.6747 34.5921C41.188 33.273 41.5401 31.7643 41.6391 29.5553C41.7398 27.341 41.7632 26.6353 41.7632 21C41.7632 15.3647 41.7398 14.6574 41.6391 12.4448C41.5384 10.2356 41.188 8.72623 40.6747 7.40796C40.1431 6.04354 39.4335 4.88696 38.2797 3.73204C37.1259 2.57712 35.9669 1.86827 34.6033 1.33853C33.2817 0.825569 31.7721 0.473632 29.5634 0.374692C27.3495 0.274091 26.6417 0.249023 21.003 0.249023C15.3643 0.249023 14.6561 0.272431 12.441 0.374692Z" fill="url(#paint1_radial_6029_3)"/>
</g>
<defs>
<radialGradient id="paint0_radial_6029_3" cx="0" cy="0" r="1" gradientUnits="userSpaceOnUse" gradientTransform="translate(5.75501 41.9471) scale(54.2099 54.1774)">
<stop offset="0.09" stop-color="#FA8F21"/>
<stop offset="0.78" stop-color="#D82D7E"/>
</radialGradient>
<radialGradient id="paint1_radial_6029_3" cx="0" cy="0" r="1" gradientUnits="userSpaceOnUse" gradientTransform="translate(25.4222 43.8064) scale(42.7249 42.6993)">
<stop offset="0.64" stop-color="#8C3AAA" stop-opacity="0"/>
<stop offset="1" stop-color="#8C3AAA"/>
</radialGradient>
</defs>
</svg>
