<svg width="72" height="78" viewBox="0 0 72 78" fill="none" xmlns="http://www.w3.org/2000/svg">
<g id="Social Media / Youtube">
<g id="Vector">
<path d="M56.0255 5.09682C55.5554 3.32955 54.1648 1.93537 52.3955 1.45755C49.1963 0.600098 36.3607 0.600098 36.3607 0.600098C36.3607 0.600098 23.5316 0.600098 20.326 1.45755C18.5632 1.92883 17.1726 3.32301 16.696 5.09682C15.8407 8.3041 15.8407 15.0001 15.8407 15.0001C15.8407 15.0001 15.8407 21.6961 16.696 24.9034C17.1661 26.6706 18.5567 28.0648 20.326 28.5426C23.5316 29.4001 36.3607 29.4001 36.3607 29.4001C36.3607 29.4001 49.1963 29.4001 52.3955 28.5426C54.1582 28.0714 55.5489 26.6772 56.0255 24.9034C56.8807 21.6961 56.8807 15.0001 56.8807 15.0001C56.8807 15.0001 56.8807 8.3041 56.0255 5.09682Z" fill="#FF3000"/>
<path d="M32.2606 21.1725L42.9222 15.0001L32.2606 8.82773V21.1725Z" fill="white"/>
</g>
</g>
</svg>
